<mxfile host="app.diagrams.net" modified="2023-11-03T23:16:32.458Z" agent="Mozilla/5.0 (Windows NT 10.0; Win64; x64) AppleWebKit/537.36 (KHTML, like Gecko) Chrome/119.0.0.0 Safari/537.36" etag="orJQowthGjznD6fg8_Qp" version="22.0.8" type="github">
  <diagram name="PÃ¡gina-1" id="v1UHemaf5AznTFpv2l1N">
    <mxGraphModel dx="880" dy="478" grid="1" gridSize="10" guides="1" tooltips="1" connect="1" arrows="1" fold="1" page="1" pageScale="1" pageWidth="827" pageHeight="1169" math="0" shadow="0">
      <root>
        <mxCell id="0" />
        <mxCell id="1" parent="0" />
        <mxCell id="evFT6G1I5wkPtH4C7enB-1" value="" style="rounded=0;whiteSpace=wrap;html=1;movable=1;resizable=1;rotatable=1;deletable=1;editable=1;locked=0;connectable=1;" vertex="1" parent="1">
          <mxGeometry x="20" width="2000" height="970" as="geometry" />
        </mxCell>
        <mxCell id="evFT6G1I5wkPtH4C7enB-2" value="" style="rounded=0;whiteSpace=wrap;html=1;" vertex="1" parent="1">
          <mxGeometry x="1650" y="15" width="340" height="925" as="geometry" />
        </mxCell>
        <mxCell id="evFT6G1I5wkPtH4C7enB-3" value="" style="rounded=0;whiteSpace=wrap;html=1;" vertex="1" parent="1">
          <mxGeometry x="160" y="15" width="520" height="925" as="geometry" />
        </mxCell>
        <mxCell id="evFT6G1I5wkPtH4C7enB-4" value="&lt;font style=&quot;font-size: 16px;&quot;&gt;&lt;b&gt;User&lt;/b&gt;&lt;/font&gt;" style="text;html=1;strokeColor=none;fillColor=none;align=center;verticalAlign=middle;whiteSpace=wrap;rounded=0;" vertex="1" parent="1">
          <mxGeometry x="45" y="30" width="60" height="30" as="geometry" />
        </mxCell>
        <mxCell id="evFT6G1I5wkPtH4C7enB-5" value="&lt;font style=&quot;font-size: 16px;&quot;&gt;&lt;b&gt;UI&lt;/b&gt;&lt;/font&gt;" style="text;html=1;strokeColor=none;fillColor=none;align=center;verticalAlign=middle;whiteSpace=wrap;rounded=0;" vertex="1" parent="1">
          <mxGeometry x="340" y="30" width="60" height="30" as="geometry" />
        </mxCell>
        <mxCell id="evFT6G1I5wkPtH4C7enB-6" value="&lt;span style=&quot;font-size: 16px;&quot;&gt;&lt;b&gt;&lt;br&gt;&lt;/b&gt;&lt;/span&gt;" style="text;html=1;strokeColor=none;fillColor=none;align=center;verticalAlign=middle;whiteSpace=wrap;rounded=0;" vertex="1" parent="1">
          <mxGeometry x="880" y="30" width="60" height="30" as="geometry" />
        </mxCell>
        <mxCell id="evFT6G1I5wkPtH4C7enB-7" value="Actor" style="shape=umlActor;verticalLabelPosition=bottom;verticalAlign=top;html=1;outlineConnect=0;" vertex="1" parent="1">
          <mxGeometry x="60" y="425" width="30" height="60" as="geometry" />
        </mxCell>
        <mxCell id="evFT6G1I5wkPtH4C7enB-8" value="&lt;span style=&quot;font-size: 16px;&quot;&gt;&lt;b&gt;Database&lt;br&gt;&lt;/b&gt;&lt;/span&gt;" style="text;html=1;strokeColor=none;fillColor=none;align=center;verticalAlign=middle;whiteSpace=wrap;rounded=0;" vertex="1" parent="1">
          <mxGeometry x="1775" y="20" width="90" height="30" as="geometry" />
        </mxCell>
        <mxCell id="evFT6G1I5wkPtH4C7enB-9" value="" style="group;movable=1;resizable=1;rotatable=1;deletable=1;editable=1;locked=0;connectable=1;fillStyle=auto;" vertex="1" connectable="0" parent="1">
          <mxGeometry x="170" y="400" width="180" height="120" as="geometry" />
        </mxCell>
        <mxCell id="evFT6G1I5wkPtH4C7enB-10" value="&amp;lt;&amp;lt;device&amp;gt;&amp;gt;&lt;br&gt;Web server" style="verticalAlign=top;align=left;spacingTop=8;spacingLeft=2;spacingRight=12;shape=cube;size=10;direction=south;fontStyle=4;html=1;whiteSpace=wrap;movable=0;resizable=0;rotatable=0;deletable=0;editable=0;locked=1;connectable=0;" vertex="1" parent="evFT6G1I5wkPtH4C7enB-9">
          <mxGeometry width="180" height="120" as="geometry" />
        </mxCell>
        <mxCell id="evFT6G1I5wkPtH4C7enB-11" value="Log in" style="shape=module;align=left;spacingLeft=20;align=center;verticalAlign=top;whiteSpace=wrap;html=1;" vertex="1" parent="evFT6G1I5wkPtH4C7enB-9">
          <mxGeometry x="35" y="60" width="100" height="50" as="geometry" />
        </mxCell>
        <mxCell id="evFT6G1I5wkPtH4C7enB-12" value="" style="group" vertex="1" connectable="0" parent="1">
          <mxGeometry x="380" y="70" width="250" height="160" as="geometry" />
        </mxCell>
        <mxCell id="evFT6G1I5wkPtH4C7enB-13" value="Catalogue" style="verticalAlign=top;align=left;spacingTop=8;spacingLeft=2;spacingRight=12;shape=cube;size=10;direction=south;fontStyle=4;html=1;whiteSpace=wrap;" vertex="1" parent="evFT6G1I5wkPtH4C7enB-12">
          <mxGeometry width="250" height="160" as="geometry" />
        </mxCell>
        <mxCell id="evFT6G1I5wkPtH4C7enB-14" value="&amp;lt;&amp;lt;file&amp;gt;&amp;gt;&lt;br&gt;footer.php" style="shape=module;align=left;spacingLeft=20;align=center;verticalAlign=top;whiteSpace=wrap;html=1;" vertex="1" parent="evFT6G1I5wkPtH4C7enB-12">
          <mxGeometry x="20" y="40" width="100" height="40" as="geometry" />
        </mxCell>
        <mxCell id="evFT6G1I5wkPtH4C7enB-15" value="&amp;lt;&amp;lt;file&amp;gt;&amp;gt;&lt;br&gt;header.php" style="shape=module;align=left;spacingLeft=20;align=center;verticalAlign=top;whiteSpace=wrap;html=1;" vertex="1" parent="evFT6G1I5wkPtH4C7enB-12">
          <mxGeometry x="130" y="40" width="100" height="40" as="geometry" />
        </mxCell>
        <mxCell id="evFT6G1I5wkPtH4C7enB-16" value="&amp;lt;&amp;lt;interface&amp;gt;&amp;gt;&lt;br&gt;manage-products.php" style="shape=module;align=left;spacingLeft=20;align=center;verticalAlign=top;whiteSpace=wrap;html=1;" vertex="1" parent="evFT6G1I5wkPtH4C7enB-12">
          <mxGeometry x="20" y="100" width="150" height="40" as="geometry" />
        </mxCell>
        <mxCell id="evFT6G1I5wkPtH4C7enB-22" value="" style="group" vertex="1" connectable="0" parent="1">
          <mxGeometry x="390" y="280" width="250" height="160" as="geometry" />
        </mxCell>
        <mxCell id="evFT6G1I5wkPtH4C7enB-23" value="Cart" style="verticalAlign=top;align=left;spacingTop=8;spacingLeft=2;spacingRight=12;shape=cube;size=10;direction=south;fontStyle=4;html=1;whiteSpace=wrap;" vertex="1" parent="evFT6G1I5wkPtH4C7enB-22">
          <mxGeometry y="-10" width="250" height="110" as="geometry" />
        </mxCell>
        <mxCell id="evFT6G1I5wkPtH4C7enB-24" value="&amp;lt;&amp;lt;file&amp;gt;&amp;gt;&lt;br&gt;cart.css" style="shape=module;align=left;spacingLeft=20;align=center;verticalAlign=top;whiteSpace=wrap;html=1;" vertex="1" parent="evFT6G1I5wkPtH4C7enB-22">
          <mxGeometry x="20" y="40" width="100" height="40" as="geometry" />
        </mxCell>
        <mxCell id="evFT6G1I5wkPtH4C7enB-25" value="&amp;lt;&amp;lt;interface&amp;gt;&amp;gt;&lt;br&gt;category.php" style="shape=module;align=left;spacingLeft=20;align=center;verticalAlign=top;whiteSpace=wrap;html=1;" vertex="1" parent="evFT6G1I5wkPtH4C7enB-22">
          <mxGeometry x="130" y="40" width="100" height="40" as="geometry" />
        </mxCell>
        <mxCell id="evFT6G1I5wkPtH4C7enB-26" value="" style="group" vertex="1" connectable="0" parent="1">
          <mxGeometry x="400" y="440" width="250" height="310" as="geometry" />
        </mxCell>
        <mxCell id="evFT6G1I5wkPtH4C7enB-27" value="Purchase orders" style="verticalAlign=top;align=left;spacingTop=8;spacingLeft=2;spacingRight=12;shape=cube;size=10;direction=south;fontStyle=4;html=1;whiteSpace=wrap;" vertex="1" parent="evFT6G1I5wkPtH4C7enB-26">
          <mxGeometry width="250" height="110" as="geometry" />
        </mxCell>
        <mxCell id="evFT6G1I5wkPtH4C7enB-28" value="&amp;lt;&amp;lt;file&amp;gt;&amp;gt;&lt;br&gt;orders.css" style="shape=module;align=left;spacingLeft=20;align=center;verticalAlign=top;whiteSpace=wrap;html=1;" vertex="1" parent="evFT6G1I5wkPtH4C7enB-26">
          <mxGeometry x="20" y="40" width="100" height="40" as="geometry" />
        </mxCell>
        <mxCell id="evFT6G1I5wkPtH4C7enB-29" value="&amp;lt;&amp;lt;interface&amp;gt;&amp;gt;&lt;br&gt;orders.php" style="shape=module;align=left;spacingLeft=20;align=center;verticalAlign=top;whiteSpace=wrap;html=1;" vertex="1" parent="evFT6G1I5wkPtH4C7enB-26">
          <mxGeometry x="130" y="40" width="100" height="40" as="geometry" />
        </mxCell>
        <mxCell id="evFT6G1I5wkPtH4C7enB-30" value="" style="group" vertex="1" connectable="0" parent="evFT6G1I5wkPtH4C7enB-26">
          <mxGeometry y="150" width="250" height="160" as="geometry" />
        </mxCell>
        <mxCell id="evFT6G1I5wkPtH4C7enB-31" value="Tracking" style="verticalAlign=top;align=left;spacingTop=8;spacingLeft=2;spacingRight=12;shape=cube;size=10;direction=south;fontStyle=4;html=1;whiteSpace=wrap;" vertex="1" parent="evFT6G1I5wkPtH4C7enB-30">
          <mxGeometry width="250" height="110" as="geometry" />
        </mxCell>
        <mxCell id="evFT6G1I5wkPtH4C7enB-32" value="&amp;lt;&amp;lt;file&amp;gt;&amp;gt;&lt;br&gt;tracking.css" style="shape=module;align=left;spacingLeft=20;align=center;verticalAlign=top;whiteSpace=wrap;html=1;" vertex="1" parent="evFT6G1I5wkPtH4C7enB-30">
          <mxGeometry x="20" y="40" width="100" height="40" as="geometry" />
        </mxCell>
        <mxCell id="evFT6G1I5wkPtH4C7enB-33" value="&amp;lt;&amp;lt;interface&amp;gt;&amp;gt;&lt;br&gt;tracking.php" style="shape=module;align=left;spacingLeft=20;align=center;verticalAlign=top;whiteSpace=wrap;html=1;" vertex="1" parent="evFT6G1I5wkPtH4C7enB-30">
          <mxGeometry x="130" y="40" width="100" height="40" as="geometry" />
        </mxCell>
        <mxCell id="evFT6G1I5wkPtH4C7enB-34" value="" style="rounded=0;whiteSpace=wrap;html=1;" vertex="1" parent="1">
          <mxGeometry x="880" y="15" width="520" height="925" as="geometry" />
        </mxCell>
        <mxCell id="evFT6G1I5wkPtH4C7enB-35" value="" style="group" vertex="1" connectable="0" parent="1">
          <mxGeometry x="955" y="160" width="370" height="160" as="geometry" />
        </mxCell>
        <mxCell id="evFT6G1I5wkPtH4C7enB-36" value="Catalogue" style="verticalAlign=top;align=left;spacingTop=8;spacingLeft=2;spacingRight=12;shape=cube;size=10;direction=south;fontStyle=4;html=1;whiteSpace=wrap;" vertex="1" parent="evFT6G1I5wkPtH4C7enB-35">
          <mxGeometry width="300" height="160" as="geometry" />
        </mxCell>
        <mxCell id="evFT6G1I5wkPtH4C7enB-37" value="&amp;lt;&amp;lt;file&amp;gt;&amp;gt;&lt;br&gt;delete.php" style="shape=module;align=left;spacingLeft=20;align=center;verticalAlign=top;whiteSpace=wrap;html=1;" vertex="1" parent="evFT6G1I5wkPtH4C7enB-35">
          <mxGeometry x="20" y="40" width="100" height="40" as="geometry" />
        </mxCell>
        <mxCell id="evFT6G1I5wkPtH4C7enB-38" value="&amp;lt;&amp;lt;file&amp;gt;&amp;gt;&lt;br style=&quot;border-color: var(--border-color);&quot;&gt;edit.php" style="shape=module;align=left;spacingLeft=20;align=center;verticalAlign=top;whiteSpace=wrap;html=1;" vertex="1" parent="evFT6G1I5wkPtH4C7enB-35">
          <mxGeometry x="150" y="40" width="100" height="40" as="geometry" />
        </mxCell>
        <mxCell id="evFT6G1I5wkPtH4C7enB-39" value="&amp;lt;&amp;lt;interface&amp;gt;&amp;gt;&lt;br&gt;logicalDelete.php" style="shape=module;align=left;spacingLeft=20;align=center;verticalAlign=top;whiteSpace=wrap;html=1;" vertex="1" parent="evFT6G1I5wkPtH4C7enB-35">
          <mxGeometry x="20" y="100" width="130" height="40" as="geometry" />
        </mxCell>
        <mxCell id="evFT6G1I5wkPtH4C7enB-40" value="&amp;lt;&amp;lt;file&amp;gt;&amp;gt;&lt;br style=&quot;border-color: var(--border-color);&quot;&gt;save.php" style="shape=module;align=left;spacingLeft=20;align=center;verticalAlign=top;whiteSpace=wrap;html=1;" vertex="1" parent="evFT6G1I5wkPtH4C7enB-35">
          <mxGeometry x="170" y="100" width="100" height="40" as="geometry" />
        </mxCell>
        <mxCell id="evFT6G1I5wkPtH4C7enB-41" value="" style="group" vertex="1" connectable="0" parent="1">
          <mxGeometry x="955" y="40" width="370" height="160" as="geometry" />
        </mxCell>
        <mxCell id="evFT6G1I5wkPtH4C7enB-42" value="Log in" style="verticalAlign=top;align=left;spacingTop=8;spacingLeft=2;spacingRight=12;shape=cube;size=10;direction=south;fontStyle=4;html=1;whiteSpace=wrap;" vertex="1" parent="evFT6G1I5wkPtH4C7enB-41">
          <mxGeometry width="160" height="110" as="geometry" />
        </mxCell>
        <mxCell id="evFT6G1I5wkPtH4C7enB-43" value="&amp;lt;&amp;lt;file&amp;gt;&amp;gt;&lt;br&gt;verify.php" style="shape=module;align=left;spacingLeft=20;align=center;verticalAlign=top;whiteSpace=wrap;html=1;" vertex="1" parent="evFT6G1I5wkPtH4C7enB-41">
          <mxGeometry x="10" y="40" width="130" height="40" as="geometry" />
        </mxCell>
        <mxCell id="evFT6G1I5wkPtH4C7enB-44" value="&lt;span style=&quot;font-size: 16px;&quot;&gt;&lt;b&gt;Controller&lt;br&gt;&lt;/b&gt;&lt;/span&gt;" style="text;html=1;strokeColor=none;fillColor=none;align=center;verticalAlign=middle;whiteSpace=wrap;rounded=0;" vertex="1" parent="evFT6G1I5wkPtH4C7enB-41">
          <mxGeometry x="125" y="-30" width="90" height="30" as="geometry" />
        </mxCell>
        <mxCell id="evFT6G1I5wkPtH4C7enB-45" style="rounded=0;orthogonalLoop=1;jettySize=auto;html=1;exitX=0.5;exitY=0.5;exitDx=0;exitDy=0;exitPerimeter=0;entryX=0.003;entryY=0.476;entryDx=0;entryDy=0;entryPerimeter=0;fontFamily=Helvetica;fontSize=12;fontColor=default;" edge="1" parent="1" source="evFT6G1I5wkPtH4C7enB-7" target="evFT6G1I5wkPtH4C7enB-3">
          <mxGeometry relative="1" as="geometry" />
        </mxCell>
        <mxCell id="evFT6G1I5wkPtH4C7enB-46" value="" style="endArrow=classic;html=1;rounded=0;fontFamily=Helvetica;fontSize=12;fontColor=default;" edge="1" parent="1">
          <mxGeometry width="50" height="50" relative="1" as="geometry">
            <mxPoint x="680" y="460" as="sourcePoint" />
            <mxPoint x="880" y="460" as="targetPoint" />
          </mxGeometry>
        </mxCell>
        <mxCell id="evFT6G1I5wkPtH4C7enB-47" value="" style="group" vertex="1" connectable="0" parent="1">
          <mxGeometry x="955" y="330" width="370" height="160" as="geometry" />
        </mxCell>
        <mxCell id="evFT6G1I5wkPtH4C7enB-48" value="Cart" style="verticalAlign=top;align=left;spacingTop=8;spacingLeft=2;spacingRight=12;shape=cube;size=10;direction=south;fontStyle=4;html=1;whiteSpace=wrap;" vertex="1" parent="evFT6G1I5wkPtH4C7enB-47">
          <mxGeometry width="300" height="160" as="geometry" />
        </mxCell>
        <mxCell id="evFT6G1I5wkPtH4C7enB-49" value="&amp;lt;&amp;lt;file&amp;gt;&amp;gt;&lt;br&gt;delete.php" style="shape=module;align=left;spacingLeft=20;align=center;verticalAlign=top;whiteSpace=wrap;html=1;" vertex="1" parent="evFT6G1I5wkPtH4C7enB-47">
          <mxGeometry x="15" y="40" width="100" height="40" as="geometry" />
        </mxCell>
        <mxCell id="evFT6G1I5wkPtH4C7enB-50" value="&amp;lt;&amp;lt;file&amp;gt;&amp;gt;&lt;br&gt;quantity.php" style="shape=module;align=left;spacingLeft=20;align=center;verticalAlign=top;whiteSpace=wrap;html=1;" vertex="1" parent="evFT6G1I5wkPtH4C7enB-47">
          <mxGeometry x="135" y="40" width="100" height="40" as="geometry" />
        </mxCell>
        <mxCell id="evFT6G1I5wkPtH4C7enB-51" value="&amp;lt;&amp;lt;file&amp;gt;&amp;gt;&lt;br&gt;connection.php" style="shape=module;align=left;spacingLeft=20;align=center;verticalAlign=top;whiteSpace=wrap;html=1;" vertex="1" parent="1">
          <mxGeometry x="1470" y="440" width="100" height="40" as="geometry" />
        </mxCell>
        <mxCell id="evFT6G1I5wkPtH4C7enB-52" value="" style="endArrow=classic;html=1;rounded=0;fontFamily=Helvetica;fontSize=12;fontColor=default;" edge="1" parent="1" target="evFT6G1I5wkPtH4C7enB-51">
          <mxGeometry width="50" height="50" relative="1" as="geometry">
            <mxPoint x="1400" y="460" as="sourcePoint" />
            <mxPoint x="1599" y="459.23" as="targetPoint" />
          </mxGeometry>
        </mxCell>
        <mxCell id="evFT6G1I5wkPtH4C7enB-53" value="&amp;lt;&amp;lt;table&amp;gt;&amp;gt;&lt;br&gt;zones" style="shape=module;align=left;spacingLeft=20;align=center;verticalAlign=top;whiteSpace=wrap;html=1;movable=1;resizable=1;rotatable=1;deletable=1;editable=1;locked=0;connectable=1;" vertex="1" parent="1">
          <mxGeometry x="1765" y="552.5" width="110" height="55" as="geometry" />
        </mxCell>
        <mxCell id="evFT6G1I5wkPtH4C7enB-54" value="&amp;lt;&amp;lt;table&amp;gt;&amp;gt;&lt;br&gt;orders" style="shape=module;align=left;spacingLeft=20;align=center;verticalAlign=top;whiteSpace=wrap;html=1;movable=1;resizable=1;rotatable=1;deletable=1;editable=1;locked=0;connectable=1;" vertex="1" parent="1">
          <mxGeometry x="1765" y="440" width="110" height="60" as="geometry" />
        </mxCell>
        <mxCell id="evFT6G1I5wkPtH4C7enB-55" value="&amp;lt;&amp;lt;table&amp;gt;&amp;gt;&lt;br&gt;product" style="shape=component;align=left;spacingLeft=36;rounded=0;shadow=0;comic=0;labelBackgroundColor=none;strokeWidth=1;fontFamily=Verdana;fontSize=12;html=1;" vertex="1" parent="1">
          <mxGeometry x="1760" y="320" width="120" height="60" as="geometry" />
        </mxCell>
        <mxCell id="evFT6G1I5wkPtH4C7enB-56" value="&amp;lt;&amp;lt;table&amp;gt;&amp;gt;&lt;br&gt;users" style="shape=component;align=left;spacingLeft=36;rounded=0;shadow=0;comic=0;labelBackgroundColor=none;strokeWidth=1;fontFamily=Verdana;fontSize=12;html=1;" vertex="1" parent="1">
          <mxGeometry x="1760" y="190" width="120" height="60" as="geometry" />
        </mxCell>
        <mxCell id="evFT6G1I5wkPtH4C7enB-57" value="" style="group" vertex="1" connectable="0" parent="1">
          <mxGeometry x="955" y="680" width="250" height="110" as="geometry" />
        </mxCell>
        <mxCell id="evFT6G1I5wkPtH4C7enB-58" value="Tracking" style="verticalAlign=top;align=left;spacingTop=8;spacingLeft=2;spacingRight=12;shape=cube;size=10;direction=south;fontStyle=4;html=1;whiteSpace=wrap;" vertex="1" parent="evFT6G1I5wkPtH4C7enB-57">
          <mxGeometry width="250" height="110" as="geometry" />
        </mxCell>
        <mxCell id="evFT6G1I5wkPtH4C7enB-59" value="&amp;lt;&amp;lt;file&amp;gt;&amp;gt;&lt;br&gt;google.php" style="shape=module;align=left;spacingLeft=20;align=center;verticalAlign=top;whiteSpace=wrap;html=1;" vertex="1" parent="evFT6G1I5wkPtH4C7enB-57">
          <mxGeometry x="15" y="40" width="100" height="40" as="geometry" />
        </mxCell>
        <mxCell id="evFT6G1I5wkPtH4C7enB-60" value="&amp;lt;&amp;lt;file&amp;gt;&amp;gt;&lt;br&gt;mail.php" style="shape=module;align=left;spacingLeft=20;align=center;verticalAlign=top;whiteSpace=wrap;html=1;" vertex="1" parent="evFT6G1I5wkPtH4C7enB-57">
          <mxGeometry x="125" y="40" width="100" height="40" as="geometry" />
        </mxCell>
        <mxCell id="evFT6G1I5wkPtH4C7enB-61" value="" style="group" vertex="1" connectable="0" parent="1">
          <mxGeometry x="960" y="500" width="300" height="160" as="geometry" />
        </mxCell>
        <mxCell id="evFT6G1I5wkPtH4C7enB-62" value="Purchase orders" style="verticalAlign=top;align=left;spacingTop=8;spacingLeft=2;spacingRight=12;shape=cube;size=10;direction=south;fontStyle=4;html=1;whiteSpace=wrap;" vertex="1" parent="evFT6G1I5wkPtH4C7enB-61">
          <mxGeometry width="300" height="160" as="geometry" />
        </mxCell>
        <mxCell id="evFT6G1I5wkPtH4C7enB-63" value="&amp;lt;&amp;lt;file&amp;gt;&amp;gt;&lt;br&gt;onlinepay.php" style="shape=module;align=left;spacingLeft=20;align=center;verticalAlign=top;whiteSpace=wrap;html=1;" vertex="1" parent="evFT6G1I5wkPtH4C7enB-61">
          <mxGeometry x="10" y="40" width="100" height="40" as="geometry" />
        </mxCell>
        <mxCell id="evFT6G1I5wkPtH4C7enB-64" value="" style="endArrow=classic;html=1;rounded=0;fontFamily=Helvetica;fontSize=12;fontColor=default;" edge="1" parent="1" source="evFT6G1I5wkPtH4C7enB-51">
          <mxGeometry width="50" height="50" relative="1" as="geometry">
            <mxPoint x="1580" y="459.6" as="sourcePoint" />
            <mxPoint x="1650" y="460" as="targetPoint" />
          </mxGeometry>
        </mxCell>
      </root>
    </mxGraphModel>
  </diagram>
</mxfile>
